<svg xmlns="http://www.w3.org/2000/svg" viewBox="0 0 50 50" shape-rendering="geometricPrecision"><defs><linearGradient id="A" x1="112.087" y1="-14.385" x2="6.854" y2="34.301" gradientUnits="userSpaceOnUse"><stop offset="0" stop-color="#fff"/><stop offset="1" stop-color="#ffb100"/></linearGradient><filter id="B" color-interpolation-filters="sRGB"><feFlood flood-opacity=".392" flood-color="#0a0a0a"/><feComposite in2="SourceGraphic" operator="in"/><feGaussianBlur stdDeviation=".6"/><feOffset dx="1.4" dy="-.2"/><feComposite in="SourceGraphic"/></filter></defs><g stroke="#000"><path d="M9.553 2.47c-2.098 0-3.786 1.604-3.786 3.6v29.25c0 1.995 1.688 3.6 3.786 3.6h4.26l5.993 5.677L25 49.338l6.268-5.743 4.92-4.678h4.26c2.098 0 3.786-1.604 3.786-3.6V6.068c0-1.995-1.688-3.6-3.786-3.6z" fill="url(#A)" stroke-width="1.325" stroke-linejoin="round" filter="url(#B)"/><path d="M32.7 27.7a10.04 10.04 0 1 0-17.738-6.453 10.04 10.04 0 0 0 2.348 6.452l.47.56-1.98 1.662.554.66 1.98-1.662-.554-.66-1.122.94-.47-.56a11.51 11.51 0 0 1-2.624-6.162l-1.126.078-.06-.86 1.126-.08c-.1-2.96.95-5.843 2.93-8.046l-.813-.785.598-.62.813.785a11.46 11.46 0 0 1 7.537-3.2V8.63h.86v1.13a11.46 11.46 0 0 1 7.537 3.2l.813-.785.598.62-.812.785c1.98 2.202 3.03 5.086 2.93 8.046l1.125.078-.06.86-1.126-.078c-.245 2.27-1.158 4.414-2.625 6.162l-.47.56.858.72-.553.66-1.98-1.66.554-.66zm-11.033-4.45l1.192 1.244 1.496-1.65a1.71 1.71 0 0 0 .758.121 1.72 1.72 0 0 0 1.41-2.514l4.572-5.046-5.234 4.356a1.72 1.72 0 0 0-2.482 2.065zM25 4.457c-9.278 0-16.8 7.522-16.8 16.8s7.522 16.8 16.8 16.8 16.8-7.522 16.8-16.8-7.522-16.8-16.8-16.8zm0 2.58c7.85 0 14.22 6.37 14.22 14.22S32.85 35.476 25 35.476s-14.22-6.37-14.22-14.22S17.15 7.038 25 7.038z" fill="#fff" stroke-width=".8"/></g></svg>