<svg xmlns="http://www.w3.org/2000/svg" xmlns:xlink="http://www.w3.org/1999/xlink" viewBox="0 0 50 50" preserveAspectRatio="xMidYMid meet" shape-rendering="geometricPrecision"><defs><linearGradient id="a"><stop offset="0" stop-color="#fff"/><stop offset="1" stop-color="#00f"/></linearGradient><linearGradient xlink:href="#a" id="b" x1="171.319" y1="-15.977" x2="52.802" y2="32.305" gradientUnits="userSpaceOnUse" gradientTransform="matrix(1.13237 0 0 1.07634 -52.9375 -2.82)"/><filter id="c" color-interpolation-filters="sRGB"><feFlood flood-opacity=".392" flood-color="#0A0A0A" result="flood"/><feComposite in="flood" in2="SourceGraphic" operator="in" result="composite1"/><feGaussianBlur in="composite1" stdDeviation=".6" result="blur"/><feOffset dx="1.4" dy="-.2" result="offset"/><feComposite in="SourceGraphic" in2="offset" result="composite2"/></filter></defs><path d="M9.5535 2.469c-2.098 0-3.786 1.604-3.786 3.599v29.25c0 1.995 1.688 3.6 3.786 3.6h4.26l5.993 5.677 5.193 4.743 6.268-5.743 4.919-4.678h4.26c2.098 0 3.786-1.604 3.786-3.599V6.068c0-1.995-1.688-3.6-3.786-3.6z" fill="url(#b)" stroke="#000" stroke-width="1.325" stroke-linejoin="round" filter="url(#c)"/><path d="M8.629 17.245v1.148h13.105c0 3.204-.006 6.359-.006 9.65l-.013 9.64h6.566v-4.737h-3.51v-.785l3.465-.05.047-4.605h-3.512v-.877h3.51v-4.736h-3.51v-.701h3.51l-.045-1.485c0-.781-.003-1.068-.006-1.314h13.141v-1.148zm17.246-1.554c-1.888 0-3.045-.041-4.098.003 0-.797.012-.93.012-5.854V4.843h6.492V9.58h-3.509v.786l3.465.047v4.283l-.008 1.003c-.928 0-1.408-.008-2.354-.008z" fill="#fff" stroke="#000" stroke-width=".8"/><path d="M36.346 16.793l-2.795-4.842h5.592l-1.398 2.421z" fill="#fff" stroke="#000" stroke-width=".8" stroke-linejoin="round"/><path d="M31.455 19.717h9.784v.37h-9.784zm1.275 1.34h7.234v.37H32.73zm1.46 1.339h4.315v.37H34.19z"/></svg>