<svg xmlns="http://www.w3.org/2000/svg" xmlns:xlink="http://www.w3.org/1999/xlink" viewBox="0 0 50 50" preserveAspectRatio="xMidYMid meet" shape-rendering="geometricPrecision"><defs><linearGradient id="a"><stop offset="0" stop-color="#fff"/><stop offset="1" stop-color="#b400ff"/></linearGradient><linearGradient xlink:href="#a" id="b" x1="115.451" y1="-4.991" x2="52.802" y2="32.305" gradientUnits="userSpaceOnUse" gradientTransform="matrix(1.13237 0 0 1.07634 -52.9375 -2.82)"/><filter id="c" color-interpolation-filters="sRGB"><feFlood flood-opacity=".392" flood-color="#0A0A0A" result="flood"/><feComposite in="flood" in2="SourceGraphic" operator="in" result="composite1"/><feGaussianBlur in="composite1" stdDeviation=".6" result="blur"/><feOffset dx="1.4" dy="-.2" result="offset"/><feComposite in="SourceGraphic" in2="offset" result="composite2"/></filter></defs><path d="M9.5535 2.469c-2.098 0-3.786 1.604-3.786 3.599v29.25c0 1.995 1.688 3.6 3.786 3.6h4.26l5.993 5.677 5.193 4.743 6.268-5.743 4.919-4.678h4.26c2.098 0 3.786-1.604 3.786-3.599V6.068c0-1.995-1.688-3.6-3.786-3.6z" fill="url(#b)" stroke="#000" stroke-width="1.325" stroke-linejoin="round" filter="url(#c)"/><path d="M26.2316 21.856a1.141 1.141 0 0 1-2.282 0v-10.94l-2.616 2.617a1.1413 1.1413 0 1 1-1.614-1.614l4.564-4.564a1.136 1.136 0 0 1 1.614 0l4.565 4.564a1.1413 1.1413 0 1 1-1.614 1.614l-2.617-2.616z" fill="#fff" fill-rule="evenodd" stroke="#000"/><path d="M6.4346 30.204c1.25 0 1.835.55 2.576 1.244.817.766 1.742 1.633 3.561 1.633s2.744-.867 3.56-1.633c.742-.695 1.327-1.244 2.577-1.244s1.836.55 2.577 1.244c.816.766 1.742 1.633 3.56 1.633 1.82 0 2.745-.867 3.561-1.633.741-.695 1.327-1.244 2.577-1.244s1.835.55 2.577 1.244c.816.766 1.742 1.633 3.56 1.633 1.82 0 2.745-.867 3.561-1.633.741-.695 1.327-1.244 2.577-1.244.397 0 .977-.499.844-1.205-.073-.39-.447-.72-.844-.72-1.819 0-2.744.868-3.56 1.634-.742.695-1.328 1.244-2.578 1.244-1.25 0-1.835-.55-2.576-1.244-.817-.766-1.742-1.633-3.561-1.633s-2.744.867-3.56 1.633c-.742.695-1.328 1.244-2.578 1.244-1.25 0-1.835-.55-2.576-1.244-.817-.766-1.742-1.633-3.56-1.633-1.82 0-2.745.867-3.561 1.633-.742.695-1.327 1.244-2.577 1.244s-1.835-.55-2.577-1.244c-.816-.766-1.741-1.633-3.56-1.633-.397 0-.463.338-.485.735-.039.706.088 1.19.485 1.19z" fill="#fff" stroke="#000"/></svg>