<svg xmlns="http://www.w3.org/2000/svg" xmlns:xlink="http://www.w3.org/1999/xlink" viewBox="0 0 50 50" preserveAspectRatio="xMidYMid meet" shape-rendering="geometricPrecision"><defs><linearGradient id="a"><stop offset="0" stop-color="#fff"/><stop offset="1" stop-color="red"/></linearGradient><linearGradient xlink:href="#a" id="b" x1="147.692" y1="9.291" x2="52.802" y2="32.305" gradientUnits="userSpaceOnUse" gradientTransform="matrix(1.13237 0 0 1.07634 -52.9375 -2.82)"/><filter id="c" color-interpolation-filters="sRGB"><feFlood flood-opacity=".392" flood-color="#0A0A0A" result="flood"/><feComposite in="flood" in2="SourceGraphic" operator="in" result="composite1"/><feGaussianBlur in="composite1" stdDeviation=".6" result="blur"/><feOffset dx="1.4" dy="-.2" result="offset"/><feComposite in="SourceGraphic" in2="offset" result="composite2"/></filter></defs><path d="M9.5535 2.469c-2.098 0-3.786 1.604-3.786 3.599v29.25c0 1.995 1.688 3.6 3.786 3.6h4.26l5.993 5.677 5.193 4.743 6.268-5.743 4.919-4.678h4.26c2.098 0 3.786-1.604 3.786-3.599V6.068c0-1.995-1.688-3.6-3.786-3.6z" fill="url(#b)" stroke="#000" stroke-width="1.325" stroke-linejoin="round" filter="url(#c)"/><path d="M27.3808 36.177c-1.18-.326-1.795-1.671-1.283-2.811.189-.42.63-.844 1.287-1.233.383-.228 2.672-1.343 2.756-1.343.015 0 .027.645.027 1.434 0 1.62-.069 2.256-.297 2.755-.423.926-1.535 1.462-2.49 1.198zm-8.504 0c-.838-.266-1.406-.954-1.485-1.799-.084-.9.35-1.57 1.44-2.23.404-.243 2.686-1.36 2.781-1.36.018 0 .022.77.01 1.708-.025 1.867-.074 2.214-.381 2.692-.517.804-1.566 1.242-2.366.989zm13.151-6.661a2.078 2.078 0 0 1-1.265-1.117c-.124-.264-.144-.38-.144-.826 0-.457.019-.56.157-.86.231-.5.619-.845 1.537-1.37.31-.176 2.469-1.213 2.527-1.213.052 0-.032 3.363-.09 3.63-.14.636-.555 1.228-1.07 1.531-.487.285-1.163.377-1.652.225zm-17.009-7.122c-1.01-.185-1.796-.598-2.547-1.34-.993-.984-1.443-2.062-1.436-3.444.012-2.416 1.702-4.364 4.125-4.754l.416-.067.096-.308c.45-1.434 1.696-2.813 3.118-3.451.81-.364 2.022-.598 2.673-.517l.288.036.277-.382c1.457-2.003 3.87-3.098 6.297-2.857 1.682.167 3.08.828 4.27 2.019a6.938 6.938 0 0 1 1.887 3.334c.043.173.075.195.538.356a5.866 5.866 0 0 1 3.71 7.178c-.544 1.877-2.013 3.395-3.847 3.973-.986.311-.722.304-10.492.299-7.052-.004-9.072-.02-9.373-.075zm8.698 7.122a2.078 2.078 0 0 1-1.265-1.117c-.123-.264-.144-.38-.144-.826 0-.457.02-.56.158-.86.23-.5.618-.845 1.537-1.37.31-.176 2.468-1.213 2.526-1.213.052 0-.032 3.363-.09 3.63-.14.636-.554 1.228-1.07 1.531-.487.285-1.163.377-1.651.225zm-8.741 0a2.078 2.078 0 0 1-1.265-1.117c-.124-.264-.144-.38-.144-.826 0-.457.019-.56.157-.86.231-.5.619-.845 1.537-1.37.31-.176 2.468-1.213 2.526-1.213.052 0-.031 3.363-.09 3.63-.14.636-.554 1.228-1.07 1.531-.487.285-1.163.377-1.651.225z" stroke-width=".7998" fill="#fff" stroke="#000"/></svg>