<svg xmlns="http://www.w3.org/2000/svg" xmlns:xlink="http://www.w3.org/1999/xlink" viewBox="0 0 50 50" preserveAspectRatio="xMidYMid meet" shape-rendering="geometricPrecision"><defs><linearGradient id="a"><stop offset="0" stop-color="#fff"/><stop offset="1" stop-color="#00bc00"/></linearGradient><linearGradient xlink:href="#a" id="b" x1="145.734" y1="-8.562" x2="52.802" y2="32.305" gradientUnits="userSpaceOnUse" gradientTransform="matrix(1.13237 0 0 1.07634 -57.1266 -2.82)"/><filter id="c" color-interpolation-filters="sRGB"><feFlood flood-opacity=".392" flood-color="#0A0A0A" result="flood"/><feComposite in="flood" in2="SourceGraphic" operator="in" result="composite1"/><feGaussianBlur in="composite1" stdDeviation=".6" result="blur"/><feOffset dx="1.4" dy="-.2" result="offset"/><feComposite in="SourceGraphic" in2="offset" result="composite2"/></filter></defs><path d="M5.3644 2.469c-2.098 0-3.786 1.604-3.786 3.599v29.25c0 1.995 1.688 3.6 3.786 3.6h4.26l5.993 5.677 5.193 4.743 6.268-5.743 4.919-4.678h4.26c2.098 0 3.786-1.604 3.786-3.599V6.068c0-1.995-1.688-3.6-3.786-3.6z" transform="matrix(.99628 0 0 .99628 4.2664 .2008)" fill="url(#b)" stroke="#000" stroke-width="1.325" stroke-linejoin="round" filter="url(#c)"/><path d="M25.2802 5.345S15.2145 20.1096 15.2145 27.4908c0 5.5609 4.5068 10.0667 10.0667 10.0667 5.5608 0 10.0666-4.5058 10.0666-10.0667 0-7.3812-10.0666-22.1458-10.0666-22.1458zm4.6979 25.501h-9.3958v-2.6833h9.3958zm.001-9.3957h-3.3563v3.3562h-2.6843v-3.3552h-3.3542v-2.6844h3.3542v-3.3562h2.6844v3.3562h3.3562z" fill="#fff" stroke="#000" stroke-width=".7963"/></svg>