<svg xmlns="http://www.w3.org/2000/svg" xmlns:xlink="http://www.w3.org/1999/xlink" viewBox="0 0 50 50" preserveAspectRatio="xMidYMid meet" shape-rendering="geometricPrecision"><defs><linearGradient id="a"><stop offset="0" stop-color="#fff"/><stop offset="1" stop-color="#0ff"/></linearGradient><linearGradient xlink:href="#a" id="b" x1="111.665" y1="-2.245" x2="52.802" y2="32.305" gradientUnits="userSpaceOnUse" gradientTransform="matrix(1.13237 0 0 1.07634 -57.3356 -2.82)"/><filter id="c" color-interpolation-filters="sRGB"><feFlood flood-opacity=".392" flood-color="#0A0A0A" result="flood"/><feComposite in="flood" in2="SourceGraphic" operator="in" result="composite1"/><feGaussianBlur in="composite1" stdDeviation=".6" result="blur"/><feOffset dx="1.4" dy="-.2" result="offset"/><feComposite in="SourceGraphic" in2="offset" result="composite2"/></filter></defs><path d="M5.1554 2.469c-2.098 0-3.786 1.604-3.786 3.599v29.25c0 1.995 1.688 3.6 3.786 3.6h4.26l5.993 5.677 5.193 4.743 6.268-5.743 4.919-4.678h4.26c2.098 0 3.786-1.604 3.786-3.599V6.068c0-1.995-1.688-3.6-3.786-3.6z" transform="matrix(.9872 0 0 .9872 4.662 .692)" fill="url(#b)" stroke="#000" stroke-width="1.325" stroke-linejoin="round" filter="url(#c)"/><path d="M9.4679 34.0083a11.1394 11.1394 0 0 1 4.972 1.031 12.1857 12.1857 0 0 0 5.3814 1.1122 12.1882 12.1882 0 0 0 5.3823-1.1121 11.1394 11.1394 0 0 1 4.9731-1.0311 11.1394 11.1394 0 0 1 4.9721 1.031 12.1887 12.1887 0 0 0 5.3823 1.1122c.713-.001.713-1.0726 0-1.0716a11.1394 11.1394 0 0 1-4.9731-1.03 13.4142 13.4142 0 0 0-2.6496-.866 8.1517 8.1517 0 0 0 .4355-1.3168h1.8312a.5358.5358 0 0 0 .5358-.5368v-2.1412a.5358.5358 0 0 0-.5358-.5368h-1.7269a8.2294 8.2294 0 0 0-3.629-5.5251v-3.0436a.5358.5358 0 0 0-.5348-.5348h-2.678V13.657h9.1045a.5358.5358 0 0 0 .5358-.5358V6.6947a.5358.5358 0 0 0-.5368-.5358H23.9294a.5358.5358 0 0 0-.5358.5368v12.853h-2.678a.5358.5358 0 0 0-.5358.5349v3.0436a8.2274 8.2274 0 0 0-3.629 5.5261h-1.726a.5358.5358 0 0 0-.5367.5358v2.1422c0 .2958.241.5348.5368.5348h1.8292a8.11 8.11 0 0 0 1.5091 3.1247 11.2082 11.2082 0 0 1-3.312-.942 12.1857 12.1857 0 0 0-5.3823-1.111c-.713 0-.713 1.0715 0 1.0705zm11.7825-13.389h7.4982v1.9042a8.8594 8.8594 0 0 0-7.4982 0zm-5.8918 10.1762V29.724h19.2807v1.0716z" fill="#fff" stroke="#000" stroke-width=".8103"/></svg>